<svg id="esEja6UV1QJ1" xmlns="http://www.w3.org/2000/svg" xmlns:xlink="http://www.w3.org/1999/xlink" viewBox="0 0 48 48" shape-rendering="geometricPrecision" text-rendering="geometricPrecision"><style><![CDATA[#esEja6UV1QJ2_to {animation: esEja6UV1QJ2_to__to 2000ms linear infinite normal forwards}@keyframes esEja6UV1QJ2_to__to { 0% {transform: translate(15.174145px,16.619745px)} 50% {transform: translate(17.174145px,16.619745px)} 100% {transform: translate(15.174145px,16.619745px)}} #esEja6UV1QJ7_to {animation: esEja6UV1QJ7_to__to 2000ms linear infinite normal forwards}@keyframes esEja6UV1QJ7_to__to { 0% {transform: translate(33.03545px,30.804851px)} 50% {transform: translate(31.03545px,30.804851px)} 100% {transform: translate(33.03545px,30.804851px)}}]]></style><g id="esEja6UV1QJ2_to" transform="translate(15.174145,16.619745)"><g transform="translate(-17.174145,-16.619744)"><path d="M11.7978,23.1361l-.0008.0009-3.48832,3.5874v-3.2106c0-.0036.00003-.0084.00006-.0139.00018-.0295.00049-.0825-.00249-.1247-.00325-.0458-.01438-.1954-.12176-.3352-.12157-.1581-.28412-.2033-.36689-.2184-.07643-.014-.15361-.0142-.19753-.0142h-2.10498v-16.29231h23.31811v16.29231h-16.2754c-.0133,0-.0292-.0001-.0462-.0002-.0402-.0003-.0866-.0006-.1182.0004-.0555.0019-.163.0082-.2795.0629-.1101.0517-.1826.126-.2127.1569l-.0003.0003c-.017.0174-.0361.038-.0502.053-.0159.017-.0328.0349-.0529.0554Z" fill="#d3e9f8" stroke="#1e384a" stroke-width="1.03018"/><path d="M23.0558,12.0243c.443,1.3901.6843,2.8841.6843,4.4393c0,1.223-.149,2.4093-.4279,3.5364h4.8878v-12.57807C28.2,7.18958,28.0229,7,27.8079,7L20.2,7c1.2649,1.4105,2.2508,3.1206,2.8558,5.0243Z" clip-rule="evenodd" fill="#b6daf3" fill-rule="evenodd"/><path d="M23.4223,12h-13.84462C9.25857,12,9,11.7762,9,11.5s.25857-.5.57768-.5h13.84462c.3191,0,.5777.2238.5777.5s-.2586.5-.5777.5Z" fill="#1e384a"/><path d="M19.4673,17h-9.93463C9.23842,17,9,16.7762,9,16.5s.23842-.5.53267-.5h9.93463c.2943,0,.5327.2238.5327.5s-.2384.5-.5327.5Z" fill="#1e384a"/></g></g><g id="esEja6UV1QJ7_to" transform="translate(33.03545,30.804851)"><g transform="translate(-31.03545,-30.80485)"><path d="M39.8986,37.6999v3.2085l-3.4871-3.5839c-.0002-.0002-.0004-.0004-.0006-.0007-.0194-.0201-.0359-.0377-.0514-.0545-.0139-.015-.033-.0358-.0499-.0533l-.0001-.0002c-.0301-.0312-.103-.1068-.2145-.1591-.1169-.0549-.2249-.061-.28-.0629-.0317-.001-.0781-.0007-.1187-.0004-.0172.0001-.0333.0002-.0468.0002h-16.2731v-16.2923h23.3181v16.2923h-2.105c-.0442,0-.121.0002-.1972.014-.082.0149-.2423.0589-.3642.2132-.1093.1385-.1225.2877-.1264.3365-.0035.045-.0033.0994-.0031.1297c0,.005,0,.0094,0,.0129Z" fill="#fef7f0" stroke="#1e384a" stroke-width="1.03018"/><path d="M32.3573,21.2c1.1979,1.9606,1.8888,4.2699,1.8888,6.742c0,3.183-1.1457,6.0987-3.0461,8.3461h4.422c.2342,0,.1781-.0174.3407.1511l3.0692,3.1579c.7354.7575.7354.8253.7354.0659v-3.2083c0-.1492-.0077-.1666.153-.1666h1.8772c.2206,0,.4025-.1802.4025-.401v-14.286c0-.2209-.1819-.4011-.4025-.4011-5.8658,0-3.8184,0-9.4402,0Z" clip-rule="evenodd" fill="#fbe6d3" fill-rule="evenodd"/><path d="M37.0448,27h-12.0896C24.4276,27,24,26.7762,24,26.5s.4276-.5.9552-.5h12.0896c.5276,0,.9552.2238.9552.5s-.4277.5-.9552.5Z" fill="#1e384a"/><path d="M34.0719,32h-9.1438C24.4154,32,24,31.7762,24,31.5s.4154-.5.9281-.5h9.1438c.5127,0,.9281.2238.9281.5s-.4154.5-.9281.5Z" fill="#1e384a"/></g></g></svg>