<?xml version="1.0" encoding="utf-8"?>
<!-- Generator: Adobe Illustrator 25.2.1, SVG Export Plug-In . SVG Version: 6.00 Build 0)  -->
<svg version="1.1" id="Layer_2" xmlns="http://www.w3.org/2000/svg" xmlns:xlink="http://www.w3.org/1999/xlink" x="0px" y="0px"
	 viewBox="0 0 301.4 288.3" style="enable-background:new 0 0 301.4 288.3;" xml:space="preserve">
<style type="text/css">
	.st0{fill:#F6C44F;}
	.st1{fill:#EB7900;}
	.st2{fill:url(#SVGID_1_);}
	.st3{fill:#FAA300;}
	.st4{fill:url(#SVGID_2_);}
	.st5{fill:url(#SVGID_3_);}
	.st6{fill:url(#SVGID_4_);}
</style>
<g>
	<path class="st0" d="M233.6,286.8c-2.4,0-4.8-0.6-7-1.8l-75.8-39.9L74.8,285c-2.2,1.2-4.6,1.8-7,1.8c-4.4,0-8.7-2-11.6-5.5
		c-2.9-3.4-4-7.8-3.3-12.2l14.5-84.5L6.1,124.8c-4.2-4.1-5.6-9.9-3.8-15.5c1.8-5.6,6.4-9.4,12.2-10.3l84.8-12.3l37.9-76.8
		c2.6-5.3,7.7-8.4,13.5-8.4c5.9,0,10.9,3.1,13.5,8.4l37.9,76.8L287,99.1c5.8,0.8,10.4,4.7,12.2,10.3c1.8,5.6,0.4,11.4-3.8,15.5
		L234,184.6l14.5,84.5c0.8,4.5-0.4,8.8-3.3,12.2C242.3,284.7,238,286.8,233.6,286.8z"/>
	<path class="st1" d="M150.7,3c5.3,0,9.9,2.8,12.2,7.6l37.6,76.1l0.7,1.4l1.5,0.2l84,12.2c5.2,0.8,9.4,4.2,11,9.3s0.3,10.3-3.4,14
		L233.5,183l-1.1,1.1l0.3,1.5l14.4,83.7c0.7,4-0.4,7.9-2.9,11c-2.6,3.1-6.5,4.9-10.5,4.9c-2.2,0-4.3-0.5-6.3-1.6l-75.2-39.5
		l-1.4-0.7l-1.4,0.7l-75.2,39.5c-2,1.1-4.2,1.6-6.3,1.6c-4,0-7.9-1.8-10.5-4.9c-2.6-3.1-3.6-7-2.9-11l14.4-83.7l0.3-1.5l-1.1-1.1
		L7.1,123.8c-3.8-3.7-5.1-8.9-3.4-14c1.6-5,5.7-8.5,11-9.3l84-12.2l1.5-0.2l0.7-1.4l37.6-76.1C140.8,5.8,145.4,3,150.7,3 M150.7,0
		c-5.9,0-11.8,3.1-14.9,9.2L98.2,85.4l-84,12.2c-13.6,2-19,18.7-9.2,28.3l60.8,59.3l-14.4,83.7c-1.8,10.7,6.7,19.4,16.3,19.4
		c2.5,0,5.2-0.6,7.7-1.9l75.2-39.5l75.2,39.5c2.5,1.3,5.2,1.9,7.7,1.9c9.7,0,18.2-8.7,16.3-19.4l-14.4-83.7l60.8-59.3
		c9.8-9.6,4.4-26.3-9.2-28.3l-84-12.2L165.6,9.2C162.5,3.1,156.6,0,150.7,0L150.7,0z"/>
</g>
<g>
	<linearGradient id="SVGID_1_" gradientUnits="userSpaceOnUse" x1="60.5422" y1="242.497" x2="280.118" y2="73.5851">
		<stop  offset="0" style="stop-color:#FDC92E"/>
		<stop  offset="0.4505" style="stop-color:#FEE34D"/>
		<stop  offset="0.5056" style="stop-color:#FEE751"/>
		<stop  offset="0.9449" style="stop-color:#FFF79C"/>
	</linearGradient>
	<path class="st2" d="M233.7,276.1c-0.7,0-1.4-0.2-2-0.5L150.7,233l-81.1,42.6c-0.6,0.3-1.3,0.5-2,0.5c-1.2,0-2.4-0.6-3.2-1.5
		c-0.8-0.9-1.1-2.2-0.9-3.4L79,180.9l-65.6-63.9c-1.2-1.1-1.6-2.8-1.1-4.3s1.8-2.6,3.4-2.9l90.6-13.2l40.5-82.1
		c0.7-1.5,2.2-2.4,3.8-2.4s3.1,0.9,3.8,2.4L195,96.6l90.6,13.2c1.6,0.2,2.9,1.3,3.4,2.9c0.5,1.5,0.1,3.2-1.1,4.3l-65.6,63.9
		l15.5,90.3c0.2,1.2-0.1,2.5-0.9,3.4C236.2,275.5,235,276.1,233.7,276.1z"/>
	<path class="st3" d="M150.7,14.6c0.6,0,1.2,0.3,1.5,1l41.1,83.3l91.9,13.4c1.4,0.2,2,1.9,1,2.9L219.7,180l15.7,91.6
		c0.2,1.1-0.7,2-1.7,2c-0.3,0-0.5-0.1-0.8-0.2l-82.2-43.2l-82.2,43.2c-0.3,0.1-0.5,0.2-0.8,0.2c-1,0-1.9-0.9-1.7-2L81.7,180
		l-66.5-64.8c-1-1-0.5-2.7,1-2.9L108,98.9l41.1-83.3C149.5,14.9,150.1,14.6,150.7,14.6 M150.7,9.6c-2.6,0-4.9,1.4-6,3.7l-40,81
		l-89.3,13c-2.5,0.4-4.6,2.1-5.4,4.6c-0.8,2.4-0.1,5.1,1.7,6.9l64.6,63l-15.3,89c-0.3,2,0.2,3.9,1.5,5.5c1.3,1.5,3.2,2.4,5.1,2.4
		c1.1,0,2.2-0.3,3.1-0.8l79.9-42l79.9,42c1,0.5,2,0.8,3.1,0.8c2,0,3.9-0.9,5.1-2.4c1.3-1.5,1.8-3.5,1.5-5.5l-15.3-89l64.6-63
		c1.8-1.8,2.5-4.4,1.7-6.9c-0.8-2.4-2.9-4.2-5.4-4.6l-89.3-13l-40-81C155.6,11,153.3,9.6,150.7,9.6L150.7,9.6z"/>
</g>
<g>
	<linearGradient id="SVGID_2_" gradientUnits="userSpaceOnUse" x1="71.5437" y1="170.3893" x2="192.8822" y2="87.4674">
		<stop  offset="0" style="stop-color:#FFFFFF;stop-opacity:0.2"/>
		<stop  offset="9.003884e-02" style="stop-color:#FFFFFC;stop-opacity:0.272"/>
		<stop  offset="0.4811" style="stop-color:#FFFDF2;stop-opacity:0.5849"/>
		<stop  offset="1" style="stop-color:#FFFDEF"/>
	</linearGradient>
	<polygon class="st4" points="184.7,81.3 66.5,165.2 78.8,177.2 192.3,96.7 	"/>
</g>
<g>
	<linearGradient id="SVGID_3_" gradientUnits="userSpaceOnUse" x1="66.2915" y1="260.7687" x2="296.0815" y2="114.9939">
		<stop  offset="0" style="stop-color:#FFD82B"/>
		<stop  offset="0.1603" style="stop-color:#FFE247"/>
		<stop  offset="0.3405" style="stop-color:#FFEB5F"/>
		<stop  offset="0.5321" style="stop-color:#FFF170"/>
		<stop  offset="0.7412" style="stop-color:#FFF57A"/>
		<stop  offset="1" style="stop-color:#FFF67D"/>
	</linearGradient>
	<path class="st5" d="M219.7,180l66.5-64.8c1-1,0.5-2.7-1-2.9l-33.7-4.9L72.3,234.6l-6.3,37c-0.2,1.4,1.2,2.5,2.5,1.8l82.2-43.2
		l11.2,5.9l60.1-42.7L219.7,180z"/>
</g>
<g>
	<linearGradient id="SVGID_4_" gradientUnits="userSpaceOnUse" x1="34.3001" y1="138.7734" x2="176.6838" y2="52.2719">
		<stop  offset="0" style="stop-color:#FFFFFF;stop-opacity:0.2"/>
		<stop  offset="0.1018" style="stop-color:#FFFEFB;stop-opacity:0.2814"/>
		<stop  offset="0.4715" style="stop-color:#FFFDF2;stop-opacity:0.5772"/>
		<stop  offset="1" style="stop-color:#FFFDEF"/>
	</linearGradient>
	<polygon class="st6" points="161.8,35 127.6,59.3 108,98.9 62.5,105.5 29.3,129 54.1,153.1 177.1,65.8 	"/>
</g>
</svg>
